<?xml version="1.0" encoding="utf-8"?>
<!-- Generator: Adobe Illustrator 21.1.0, SVG Export Plug-In . SVG Version: 6.00 Build 0)  -->
<svg version="1.1"
	 id="Layer_1" inkscape:version="0.91 r13725" sodipodi:docname="ssx-logo-grey.svg" xmlns:cc="http://creativecommons.org/ns#" xmlns:dc="http://purl.org/dc/elements/1.1/" xmlns:inkscape="http://www.inkscape.org/namespaces/inkscape" xmlns:rdf="http://www.w3.org/1999/02/22-rdf-syntax-ns#" xmlns:sodipodi="http://sodipodi.sourceforge.net/DTD/sodipodi-0.dtd" xmlns:svg="http://www.w3.org/2000/svg"
	 xmlns="http://www.w3.org/2000/svg" xmlns:xlink="http://www.w3.org/1999/xlink" x="0px" y="0px" viewBox="0 0 200 31"
	 style="enable-background:new 0 0 200 31;" xml:space="preserve">
<style type="text/css">
	.st0{fill:#FF0000;}
</style>
<sodipodi:namedview  bordercolor="#666666" borderopacity="1" gridtolerance="10" guidetolerance="10" id="namedview27" inkscape:current-layer="Layer_1" inkscape:cx="58.451244" inkscape:cy="21.577424" inkscape:pageopacity="0" inkscape:pageshadow="2" inkscape:window-height="873" inkscape:window-maximized="0" inkscape:window-width="1215" inkscape:window-x="0" inkscape:window-y="0" inkscape:zoom="4.5508315" objecttolerance="10" pagecolor="#ffffff" showgrid="false">
	</sodipodi:namedview>
<g id="g3" transform="translate(-0.15537969,7.9243641)">
	<path id="path5" inkscape:connector-curvature="0" class="st0" d="M13.6,8.7c0,1.2-0.3,2.2-0.8,3.1c-0.6,0.9-1.3,1.6-2.2,2.1
		c-0.9,0.5-1.8,0.9-2.9,1.1s-2.3,0.4-3.7,0.4c-0.7,0-1.5,0-2.3-0.1c-0.8,0-1.2-0.1-1.4-0.1l-0.1-2.5c0.2,0,0.6,0.1,1.3,0.1
		c0.7,0.1,1.6,0.1,2.6,0.1c0.6,0,1.4-0.1,2.3-0.2s1.7-0.4,2.2-0.6c0.7-0.3,1.2-0.7,1.5-1.2c0.4-0.5,0.5-1.1,0.5-1.8
		c0-0.8-0.2-1.4-0.5-1.9c-0.4-0.5-1-1-1.8-1.5C7.8,5.5,7.1,5.1,6.3,4.7C5.4,4.3,4.7,3.9,4,3.5C2.8,2.8,2,2,1.5,1.2
		C1,0.4,0.8-0.6,0.8-1.6c0-1,0.2-2,0.7-2.7c0.4-0.8,1-1.4,1.8-2c0.7-0.5,1.6-1,2.7-1.2s2.2-0.4,3.5-0.4c0.7,0,1.4,0,2.1,0.1
		c0.7,0,1.1,0.1,1.2,0.1L13-5.3c-0.1,0-0.5-0.1-1.2-0.1C11-5.5,10.1-5.5,9-5.5c-0.6,0-1.3,0.1-2,0.2S5.8-5,5.3-4.7
		C4.8-4.4,4.4-4,4.1-3.6s-0.5,1-0.5,1.6c0,0.6,0.2,1.1,0.5,1.6c0.3,0.5,1,1,1.9,1.6c0.5,0.3,1.1,0.6,1.9,1C8.7,2.6,9.4,3,10.2,3.5
		c1.1,0.7,2,1.4,2.6,2.3C13.3,6.6,13.6,7.6,13.6,8.7z"/>
	<path id="path7" inkscape:connector-curvature="0" class="st0" d="M33.7,6c0,1.8-0.4,3.3-1.2,4.5c-0.8,1.2-1.8,2.2-3.2,2.9
		c-1.2,0.6-2.4,1-3.8,1.3c-1.4,0.3-2.7,0.4-4,0.4l0.1,7.8h-2.7c0-0.2,0-1.8,0-4.7s0-5.9,0-8.9c0-1.5,0-3.2,0-5.2c0-2,0-4.1-0.1-6.4
		c0.4,0,0.7,0,1.1,0c0.4,0,0.6,0,0.8,0c2.4,0,4.2,0.1,5.6,0.4c1.3,0.3,2.5,0.7,3.6,1.3C31.1,0.1,32,1,32.7,2.1
		C33.3,3.3,33.7,4.6,33.7,6z M30.9,6.1c0-1.1-0.3-2.1-0.8-2.9c-0.5-0.8-1.2-1.5-2-2c-0.8-0.4-1.6-0.7-2.6-0.9c-1-0.2-2-0.3-3.2-0.3
		c-0.1,0-0.3,0-0.4,0c-0.1,0-0.3,0-0.4,0c0,0.2,0,0.9,0,2s0,3.1,0,6c0,0.6,0,1.4,0,2.5c0,1.1,0,1.9,0,2.6c1.1,0,2.1-0.1,3.2-0.3
		c1.1-0.2,2-0.5,2.6-0.8c1.2-0.6,2-1.3,2.6-2.3C30.6,8.7,30.9,7.5,30.9,6.1z"/>
	<path id="path9" inkscape:connector-curvature="0" class="st0" d="M50.1,5.4c0,2.8,0,5.1,0,6.9c0,1.8,0,2.7,0,2.9
		c-0.1,0-0.6,0.1-1.6,0.1c-0.9,0.1-2.2,0.1-3.7,0.1c-0.9,0-1.9-0.1-2.8-0.3c-0.9-0.2-1.8-0.4-2.4-0.7c-0.9-0.4-1.6-1-2.2-1.7
		c-0.6-0.7-0.8-1.6-0.8-2.6c0-1.1,0.3-2,1-2.8c0.7-0.8,1.6-1.4,2.8-1.9c0.7-0.3,1.7-0.6,3-0.8c1.2-0.2,2.6-0.4,4.2-0.6
		c-0.1-0.9-0.3-1.6-0.7-2.2c-0.4-0.6-0.9-1-1.7-1.3c-0.5-0.2-1.1-0.3-1.7-0.4C42.9,0,42.2,0,41.3,0c-0.5,0-0.9,0-1.3,0
		c-0.4,0-0.8,0.1-1.5,0.1l0.3-2.3c0.2,0,0.5,0,1-0.1c0.5,0,1.2,0,2.1,0c1.3,0,2.5,0.1,3.6,0.4c1.1,0.3,1.9,0.7,2.6,1.4
		c0.6,0.6,1.1,1.3,1.5,2.2S50.1,3.8,50.1,5.4z M47.5,9.6c0-0.4,0-0.9,0-1.5s0-1.3,0-2c-0.5,0-1.4,0.1-2.6,0.3
		c-1.3,0.2-2.3,0.4-3.2,0.8c-0.6,0.2-1.2,0.6-1.7,1.1c-0.5,0.5-0.7,1.1-0.7,1.8c0,0.8,0.2,1.4,0.6,1.9c0.4,0.5,1,0.8,1.7,1.1
		c0.6,0.2,1.2,0.3,1.9,0.4c0.7,0.1,1.4,0.1,2.1,0.1c0.2,0,0.5,0,0.8,0c0.3,0,0.7,0,1,0c0-0.1,0-0.5,0-1.1
		C47.5,11.6,47.5,10.7,47.5,9.6z"/>
	<path id="path11" inkscape:connector-curvature="0" class="st0" d="M67.6,13l-0.2,2.3c-0.1,0-0.2,0-0.4,0c-0.2,0-0.4,0-0.5,0
		c-1.5,0-2.8-0.1-4.1-0.4c-1.3-0.3-2.4-0.7-3.4-1.2c-1.4-0.8-2.5-1.7-3.2-3c-0.8-1.2-1.2-2.6-1.2-4.1c0-1.4,0.4-2.6,1.1-3.8
		s1.6-2.1,2.8-2.8c1-0.7,2.2-1.2,3.7-1.5c1.4-0.3,2.9-0.5,4.4-0.5c0.1,0,0.3,0,0.4,0c0.1,0,0.2,0,0.3,0l0.1,2.3c-0.1,0-0.2,0-0.3,0
		s-0.2,0-0.3,0c-1.3,0-2.3,0.1-3.2,0.2c-0.9,0.2-1.8,0.4-2.6,0.8c-1.1,0.5-2,1.2-2.7,2.1c-0.7,1-1,2-1,3.1c0,1.3,0.3,2.4,0.9,3.4
		c0.6,0.9,1.4,1.6,2.5,2.1c0.8,0.4,1.7,0.7,2.7,0.8c1,0.2,2.1,0.3,3.2,0.3c0.2,0,0.4,0,0.6,0S67.5,13,67.6,13L67.6,13z"/>
	<path id="path13" inkscape:connector-curvature="0" class="st0" d="M85.4,5.9H73c0,1.2,0.3,2.3,0.8,3.3c0.5,1,1.3,1.8,2.3,2.5
		c0.7,0.4,1.4,0.7,2.3,0.9c0.8,0.2,1.9,0.3,3,0.3c0.6,0,1.2,0,1.8-0.1c0.5,0,0.9-0.1,1-0.1l-0.3,2.3c-0.1,0-0.4,0-0.9,0.1
		c-0.5,0-1.1,0-1.8,0c-1.8,0-3.4-0.2-4.8-0.7c-1.3-0.5-2.5-1.1-3.3-2c-0.7-0.7-1.4-1.6-1.9-2.7c-0.5-1.1-0.8-2.3-0.8-3.6
		c0-1.3,0.2-2.5,0.6-3.5s1-2,1.7-2.9c0.7-0.8,1.5-1.4,2.5-1.8c1-0.4,2-0.6,3.1-0.6c1.1,0,2,0.2,2.8,0.5c0.8,0.3,1.5,0.8,2.1,1.4
		C84,0.1,84.5,1,84.8,2.1C85.2,3.1,85.4,4.4,85.4,5.9L85.4,5.9z M82.7,4c-0.2-1.4-0.7-2.5-1.4-3.3c-0.8-0.8-1.8-1.2-3.1-1.2
		S75.9-0.1,75,0.7S73.6,2.6,73.2,4L82.7,4L82.7,4z"/>
	<path id="path15" inkscape:connector-curvature="0" class="st0" d="M110.9,8.7c0,1.2-0.3,2.2-0.8,3.1c-0.6,0.9-1.3,1.6-2.2,2.1
		c-0.9,0.5-1.8,0.9-2.9,1.1c-1.1,0.3-2.3,0.4-3.7,0.4c-0.7,0-1.5,0-2.3-0.1c-0.8,0-1.2-0.1-1.4-0.1l-0.1-2.5c0.2,0,0.6,0.1,1.3,0.1
		c0.7,0.1,1.6,0.1,2.6,0.1c0.6,0,1.4-0.1,2.3-0.2c1-0.2,1.7-0.4,2.2-0.6c0.7-0.3,1.2-0.7,1.5-1.2c0.4-0.5,0.5-1.1,0.5-1.8
		c0-0.8-0.2-1.4-0.5-1.9c-0.4-0.5-1-1-1.8-1.5c-0.5-0.3-1.2-0.7-2.1-1.1c-0.9-0.4-1.6-0.8-2.3-1.2c-1.2-0.7-2-1.5-2.5-2.3
		c-0.5-0.8-0.7-1.8-0.7-2.8c0-1,0.2-2,0.7-2.7c0.5-0.8,1-1.4,1.8-2c0.7-0.5,1.6-1,2.7-1.2c1.1-0.3,2.2-0.4,3.5-0.4
		c0.7,0,1.4,0,2.1,0.1c0.7,0,1.1,0.1,1.2,0.1l0.2,2.5c-0.1,0-0.5-0.1-1.2-0.1c-0.7-0.1-1.6-0.1-2.7-0.1c-0.6,0-1.3,0.1-2,0.2
		c-0.7,0.1-1.3,0.4-1.8,0.7c-0.5,0.3-0.8,0.6-1.2,1.1c-0.3,0.5-0.5,1-0.5,1.6c0,0.6,0.2,1.1,0.5,1.6c0.3,0.5,1,1,1.9,1.6
		c0.5,0.3,1.1,0.6,1.9,1c0.8,0.4,1.5,0.8,2.3,1.2c1.1,0.7,2,1.4,2.6,2.3C110.6,6.6,110.9,7.6,110.9,8.7L110.9,8.7z"/>
	<path id="path17" inkscape:connector-curvature="0" class="st0" d="M130.8-1.4c-2.2,4.9-4.6,10.1-7,15.6s-3.8,8.4-3.9,8.8l-2.4-0.9
		l3.5-7.3c-0.1-0.2-0.8-1.9-2.1-5c-1.3-3.1-3-6.8-4.9-11.1l2.5-1.1c1.3,3.2,2.5,6.3,3.8,9.4c1.3,3.1,2,4.7,2,4.9h0
		c0.1-0.1,0.7-1.6,1.9-4.5c1.2-2.9,2.6-6.1,4-9.6C128.5-2.3,130.8-1.4,130.8-1.4z"/>
	<path id="path19" inkscape:connector-curvature="0" class="st0" d="M149.1,15.2h-2.7c0-0.3,0-1.4,0-3.2c0-1.8,0-2.9,0-3.3
		c0-0.6,0-1.5,0-2.6c0-1.2,0-2,0-2.5c0-1.3-0.3-2.2-0.8-2.8c-0.5-0.6-1.3-0.9-2.4-0.9c-0.7,0-1.6,0.2-2.6,0.6
		c-1,0.4-2.1,0.9-3.1,1.6c0,0.1,0,0.8,0,2c0,1.2,0,2.3,0,3.4c0,1.3,0,2.9,0,4.8c0,1.9,0,2.8,0,2.9h-2.7c0-0.1,0-0.8,0-2.1
		c0-1.3,0-3.3,0-5.9c0-1.2,0-2.6,0-4.2c0-1.6,0-3.3-0.1-5.1h2.7l0,2l0,0c1.6-0.9,2.9-1.5,4-1.9c1.1-0.4,1.9-0.5,2.7-0.5
		c1.5,0,2.6,0.5,3.5,1.4c0.9,0.9,1.3,2.2,1.3,3.8c0,1.4,0,2.7,0,3.7s0,1.9,0,2.5c0,1,0,2.3,0,3.9C149,14.3,149.1,15.1,149.1,15.2
		L149.1,15.2z"/>
	<path id="path21" inkscape:connector-curvature="0" class="st0" d="M164.6,13.1l-0.3,2.2c-0.1,0-0.3,0-0.6,0c-0.3,0-0.6,0-0.8,0
		c-2.3,0-4.1-0.5-5.3-1.5s-1.8-2.5-1.8-4.5c0-1.3,0-2.6,0-4.1c0-1.4,0-3.2,0-5.4H153v-2h3v-4h2.5v4h6.1v2h-6.1c0,0.2,0,0.9,0,2.1
		c0,1.2,0,2.1,0,2.6c0,0.5,0,1.1,0,1.8s0,1.5,0,2.5c0,1.5,0.4,2.5,1.2,3.2c0.8,0.7,2,1,3.7,1c0.2,0,0.4,0,0.7,0
		C164.3,13.1,164.5,13.1,164.6,13.1L164.6,13.1z"/>
	<path id="path23" inkscape:connector-curvature="0" class="st0" d="M180.7,5.4c0,2.8,0,5.1,0,6.9c0,1.8,0,2.7,0,2.9
		c-0.1,0-0.6,0.1-1.6,0.1c-0.9,0.1-2.2,0.1-3.7,0.1c-0.9,0-1.9-0.1-2.8-0.3c-0.9-0.2-1.8-0.4-2.4-0.7c-0.9-0.4-1.6-1-2.2-1.7
		c-0.6-0.7-0.8-1.6-0.8-2.6c0-1.1,0.3-2,1-2.8c0.7-0.8,1.6-1.4,2.8-1.9c0.7-0.3,1.7-0.6,3-0.8c1.2-0.2,2.6-0.4,4.2-0.6
		c-0.1-0.9-0.3-1.6-0.7-2.2c-0.4-0.6-0.9-1-1.7-1.3c-0.5-0.2-1.1-0.3-1.7-0.4C173.5,0,172.8,0,172,0c-0.5,0-0.9,0-1.3,0
		c-0.4,0-0.8,0.1-1.5,0.1l0.3-2.3c0.2,0,0.5,0,1-0.1c0.5,0,1.2,0,2.1,0c1.3,0,2.5,0.1,3.6,0.4c1.1,0.3,1.9,0.7,2.6,1.4
		c0.6,0.6,1.1,1.3,1.5,2.2S180.7,3.8,180.7,5.4L180.7,5.4z M178.1,9.6c0-0.4,0-0.9,0-1.5s0-1.3,0-2c-0.5,0-1.4,0.1-2.6,0.3
		c-1.3,0.2-2.3,0.4-3.2,0.8c-0.6,0.2-1.2,0.6-1.7,1.1c-0.5,0.5-0.7,1.1-0.7,1.8c0,0.8,0.2,1.4,0.6,1.9c0.4,0.5,1,0.8,1.7,1.1
		c0.6,0.2,1.2,0.3,1.9,0.4c0.7,0.1,1.4,0.1,2.1,0.1c0.2,0,0.5,0,0.8,0c0.3,0,0.7,0,1,0c0-0.1,0-0.5,0-1.1
		C178.1,11.6,178.1,10.7,178.1,9.6z"/>
	<path id="path25" inkscape:connector-curvature="0" class="st0" d="M200.2,14l-2.1,1.6c-0.1-0.1-0.6-0.9-1.6-2.3
		c-1-1.4-2.4-3.2-4-5.2h0c-1.5,1.9-2.8,3.6-3.9,5.1c-1.1,1.5-1.7,2.3-1.8,2.4l-1.9-1.5c0.1-0.1,0.8-0.9,2.1-2.4
		c1.2-1.5,2.6-3.2,4.2-5.1v0c-1-1.3-2-2.5-2.9-3.7s-1.9-2.4-3-3.8l2.1-1.6c0.8,1.1,1.7,2.2,2.6,3.4c0.9,1.2,1.8,2.4,2.8,3.7h0
		c0.8-1.1,1.7-2.2,2.6-3.3c0.9-1.1,1.8-2.4,2.8-3.8l1.9,1.4c-1.1,1.4-2.2,2.6-3,3.6c-0.9,1.1-1.9,2.3-2.9,3.5v0
		c1.7,2.1,3.1,3.9,4.3,5.4C199.4,13.1,200.1,13.9,200.2,14z"/>
</g>
</svg>
