<?xml version="1.0" encoding="UTF-8" standalone="no"?>
<svg
   xmlns:dc="http://purl.org/dc/elements/1.1/"
   xmlns:cc="http://creativecommons.org/ns#"
   xmlns:rdf="http://www.w3.org/1999/02/22-rdf-syntax-ns#"
   xmlns:svg="http://www.w3.org/2000/svg"
   xmlns="http://www.w3.org/2000/svg"
   xmlns:sodipodi="http://sodipodi.sourceforge.net/DTD/sodipodi-0.dtd"
   xmlns:inkscape="http://www.inkscape.org/namespaces/inkscape"
   version="1.1"
   id="svg2"
   viewBox="0 0 529.81243 44.077998"
   height="12.439791mm"
   width="149.52484mm"
   inkscape:version="0.91 r13725"
   sodipodi:docname="ssx-openmapping-gb-logo.svg">
  <sodipodi:namedview
     pagecolor="#ffffff"
     bordercolor="#666666"
     borderopacity="1"
     objecttolerance="10"
     gridtolerance="10"
     guidetolerance="10"
     inkscape:pageopacity="0"
     inkscape:pageshadow="2"
     inkscape:window-width="1280"
     inkscape:window-height="997"
     id="namedview28"
     showgrid="false"
     inkscape:zoom="1.0757167"
     inkscape:cx="371.24659"
     inkscape:cy="-124.44554"
     inkscape:window-x="0"
     inkscape:window-y="0"
     inkscape:window-maximized="1"
     inkscape:current-layer="text4704" />
  <defs
     id="defs4" />
  <metadata
     id="metadata7">
    <rdf:RDF>
      <cc:Work
         rdf:about="">
        <dc:format>image/svg+xml</dc:format>
        <dc:type
           rdf:resource="http://purl.org/dc/dcmitype/StillImage" />
        <dc:title />
      </cc:Work>
    </rdf:RDF>
  </metadata>
  <g
     transform="translate(-14.187401,-13.970807)"
     id="layer1">
    <g
       id="text4136"
       style="font-style:normal;font-weight:normal;font-size:40px;line-height:125%;font-family:sans-serif;letter-spacing:0px;word-spacing:0px;fill:#000000;fill-opacity:1;stroke:none;stroke-width:1px;stroke-linecap:butt;stroke-linejoin:miter;stroke-opacity:1">
      <g
         style="font-style:normal;font-weight:normal;font-size:42.77821732px;line-height:125%;font-family:sans-serif;letter-spacing:0px;word-spacing:0px;fill:#000000;fill-opacity:1;stroke:none;stroke-width:1px;stroke-linecap:butt;stroke-linejoin:miter;stroke-opacity:1"
         id="text4704">
        <path
           d="m 40.480317,32.426792 c 0,-7.023114 -6.105521,-8.258336 -10.09352,-8.258336 -6.176106,0 -9.740601,2.893947 -9.740601,7.905415 0,3.988 2.011646,5.929061 7.234867,6.917238 l 3.599787,0.705841 c 3.529203,0.670548 4.835008,1.658725 4.835008,3.740955 0,2.152814 -1.976354,3.458619 -5.187929,3.458619 -3.599787,0 -5.611433,-1.517557 -5.787893,-4.270336 l -5.152636,0 c 0.317628,5.505557 4.093875,8.50538 10.658193,8.50538 6.634902,0 10.552317,-3.105699 10.552317,-8.32892 0,-4.058583 -2.046938,-6.176105 -6.811362,-7.093698 l -4.023291,-0.776424 c -3.776247,-0.741133 -4.8703,-1.482266 -4.8703,-3.352743 0,-1.941062 1.729309,-3.176283 4.446795,-3.176283 3.352743,0 5.223221,1.411681 5.399681,4.023292 l 4.940884,0 z"
           style="fill:#ff0000"
           id="path4773" />
        <path
           d="m 55.360872,30.944526 c -2.399858,0 -4.093876,1.023469 -5.293805,3.140991 l 0,-2.823362 -4.940884,0 0,26.751359 4.940884,0 0,-9.952353 c 1.199929,2.117522 2.893947,3.105699 5.293805,3.105699 4.587964,0 7.975999,-4.305628 7.975999,-10.093521 0,-5.611433 -3.035115,-10.128813 -7.975999,-10.128813 z m -1.129345,4.129168 c 2.505734,0 4.164459,2.43515 4.164459,6.070229 0,3.458619 -1.729309,5.893769 -4.164459,5.893769 -2.470442,0 -4.16446,-2.399858 -4.16446,-5.964353 0,-3.564495 1.694018,-5.999645 4.16446,-5.999645 z"
           style="fill:#ff0000"
           id="path4775" />
        <path
           d="m 71.951436,51.131568 c 2.117522,0 4.058583,-0.917593 5.787893,-2.717487 0,0.988177 0.105876,1.341097 0.564672,1.90577 l 5.364389,0 0,-0.599965 C 82.786089,48.90817 82.539045,48.378789 82.539045,47.390612 l 0,-10.587609 c 0,-3.882123 -2.646902,-5.858477 -7.799539,-5.858477 -5.152636,0 -7.834831,2.188106 -8.152459,6.59961 l 4.764424,0 c 0.247044,-1.976354 1.058761,-2.61161 3.493911,-2.61161 1.90577,0 2.858655,0.635256 2.858655,1.905769 0,1.870478 -2.329274,1.976354 -3.952708,2.223398 l -1.976353,0.352921 c -3.776248,0.635256 -5.611433,2.576318 -5.611433,5.999645 0,3.423327 2.329274,5.717309 5.787893,5.717309 z m 5.752601,-8.470088 c 0,2.858655 -1.411682,4.482088 -3.917416,4.482088 -1.658725,0 -2.682194,-0.882301 -2.682194,-2.293982 0,-1.482265 0.776425,-2.188106 2.823362,-2.61161 l 1.694018,-0.317628 c 1.305805,-0.247045 1.517557,-0.317629 2.08223,-0.599965 l 0,1.341097 z"
           style="fill:#ff0000"
           id="path4777" />
        <path
           d="m 95.117343,34.932526 c 2.011645,0 2.96453,0.952885 3.529203,3.458619 l 4.729134,0 c -0.35292,-4.658548 -3.458621,-7.446619 -8.223045,-7.446619 -5.682017,0 -8.999468,3.740955 -8.999468,10.234689 0,6.281981 3.282159,9.952353 8.928883,9.952353 4.623256,0 7.83483,-2.858655 8.29363,-7.411327 l -4.729134,0 c -0.635257,2.470442 -1.623434,3.423327 -3.529203,3.423327 -2.505735,0 -4.023292,-2.25869 -4.023292,-5.964353 0,-2.646902 0.599965,-6.246689 4.023292,-6.246689 z"
           style="fill:#ff0000"
           id="path4779" />
        <path
           d="m 114.69008,30.944526 c -5.47026,0 -8.82301,3.952708 -8.82301,10.340565 0,6.105521 3.31745,9.846477 8.71713,9.846477 4.27034,0 7.72896,-2.43515 8.82301,-6.176106 l -4.8703,0 c -0.59996,1.517558 -1.97635,2.399858 -3.77625,2.399858 -3.31745,0 -3.84683,-2.43515 -3.9527,-5.011468 l 12.77571,0 c 0.0353,-0.423504 0.0353,-0.599964 0.0353,-0.847009 0,-8.434795 -5.11734,-10.552317 -8.92888,-10.552317 z m 3.77625,8.117167 -7.58779,0 c 0.31763,-2.893946 1.55285,-4.340919 3.74096,-4.340919 2.29398,0 3.63507,1.552849 3.84683,4.340919 z"
           style="fill:#ff0000"
           id="path4781" />
        <path
           d="m 156.55801,32.426792 c 0,-7.023114 -6.10552,-8.258336 -10.09352,-8.258336 -6.17611,0 -9.7406,2.893947 -9.7406,7.905415 0,3.988 2.01164,5.929061 7.23486,6.917238 l 3.59979,0.705841 c 3.5292,0.670548 4.83501,1.658725 4.83501,3.740955 0,2.152814 -1.97636,3.458619 -5.18793,3.458619 -3.59979,0 -5.61143,-1.517557 -5.78789,-4.270336 l -5.15264,0 c 0.31763,5.505557 4.09388,8.50538 10.65819,8.50538 6.6349,0 10.55232,-3.105699 10.55232,-8.32892 0,-4.058583 -2.04694,-6.176105 -6.81136,-7.093698 l -4.02329,-0.776424 c -3.77625,-0.741133 -4.8703,-1.482266 -4.8703,-3.352743 0,-1.941062 1.72931,-3.176283 4.44679,-3.176283 3.35275,0 5.22322,1.411681 5.39968,4.023292 l 4.94089,0 z"
           style="fill:#ff0000"
           id="path4783" />
        <path
           d="m 166.35651,51.237444 c 0,1.799893 -1.3411,3.176282 -3.07041,3.176282 -0.38821,0 -0.67055,-0.03529 -1.3058,-0.211752 l 0,3.705663 c 0.74113,0.105877 1.16463,0.141169 1.7646,0.141169 5.39968,0 5.89377,-2.929239 6.35256,-4.235044 l 7.83483,-22.551607 -5.08205,0 -3.95271,13.869767 -4.19975,-13.869767 -5.43497,0 7.0937,19.834121 0,0.141168 z"
           style="fill:#ff0000"
           id="path4785" />
        <path
           d="m 180.57313,31.262155 0,19.057696 4.94089,0 0,-11.434618 c 0,-2.25869 1.58814,-3.740955 3.988,-3.740955 2.11752,0 3.17628,1.164637 3.17628,3.423327 l 0,11.752246 4.94088,0 0,-12.775715 c 0,-4.199752 -2.32927,-6.59961 -6.38785,-6.59961 -2.57632,0 -4.30563,0.952885 -5.71731,3.070407 l 0,-2.752778 -4.94089,0 z"
           style="fill:#ff0000"
           id="path4787" />
        <path
           d="m 210.79303,31.650367 -2.75277,0 0,-5.117345 -4.94089,0 0,5.117345 -2.43515,0 0,3.282159 2.43515,0 0,11.716954 c 0,2.999822 1.58814,4.482088 4.83501,4.482088 1.09405,0 1.97635,-0.105876 2.85865,-0.388213 l 0,-3.458619 c -0.49409,0.07058 -0.77642,0.105876 -1.12934,0.105876 -1.30581,0 -1.62343,-0.388212 -1.62343,-2.082229 l 0,-10.375857 2.75277,0 0,-3.282159 z"
           style="fill:#ff0000"
           id="path4789" />
        <path
           d="m 219.04751,51.131568 c 2.11752,0 4.05859,-0.917593 5.7879,-2.717487 0,0.988177 0.10587,1.341097 0.56467,1.90577 l 5.36439,0 0,-0.599965 c -0.8823,-0.811716 -1.12935,-1.341097 -1.12935,-2.329274 l 0,-10.587609 c 0,-3.882123 -2.6469,-5.858477 -7.79954,-5.858477 -5.15263,0 -7.83483,2.188106 -8.15246,6.59961 l 4.76443,0 c 0.24704,-1.976354 1.05876,-2.61161 3.49391,-2.61161 1.90577,0 2.85865,0.635256 2.85865,1.905769 0,1.870478 -2.32927,1.976354 -3.9527,2.223398 l -1.97636,0.352921 c -3.77624,0.635256 -5.61143,2.576318 -5.61143,5.999645 0,3.423327 2.32927,5.717309 5.78789,5.717309 z m 5.7526,-8.470088 c 0,2.858655 -1.41168,4.482088 -3.91741,4.482088 -1.65873,0 -2.6822,-0.882301 -2.6822,-2.293982 0,-1.482265 0.77643,-2.188106 2.82337,-2.61161 l 1.69401,-0.317628 c 1.30581,-0.247045 1.51756,-0.317629 2.08223,-0.599965 l 0,1.341097 z"
           style="fill:#ff0000"
           id="path4791" />
        <path
           d="m 244.33094,40.720419 6.2114,-9.458264 -5.92906,0 -3.07041,5.7526 -3.1057,-5.7526 -5.92906,0 6.2114,9.458264 -6.35257,9.599432 5.92906,0 3.24687,-5.929061 3.21158,5.929061 5.92906,0 -6.35257,-9.599432 z"
           style="fill:#ff0000"
           id="path4793" />
        <path
           d="m 262.40653,37.650012 c 0,7.834831 4.83501,13.481556 12.3875,13.481556 7.72896,0 12.38751,-5.929061 12.38751,-13.305096 0,-8.187751 -4.97618,-13.658016 -12.4228,-13.658016 -7.48191,0 -12.35221,5.646725 -12.35221,13.481556 z m 12.3875,-8.964176 c 4.34092,0 7.0937,3.529203 7.0937,9.105344 0,5.258513 -2.85865,8.823008 -7.0937,8.823008 -4.27033,0 -7.09369,-3.564495 -7.09369,-8.964176 0,-5.399681 2.82336,-8.964176 7.09369,-8.964176 z"
           style="font-style:normal;font-variant:normal;font-weight:bold;font-stretch:normal;font-size:35.29203033px;line-height:125%;font-family:'Free Sans';-inkscape-font-specification:'Free Sans, Bold';text-align:start;writing-mode:lr-tb;text-anchor:start"
           id="path4795" />
        <path
           d="m 301.09541,30.944526 c -2.39986,0 -4.09388,1.023469 -5.29381,3.140991 l 0,-2.823362 -4.94088,0 0,26.751359 4.94088,0 0,-9.952353 c 1.19993,2.117522 2.89395,3.105699 5.29381,3.105699 4.58796,0 7.97599,-4.305628 7.97599,-10.093521 0,-5.611433 -3.03511,-10.128813 -7.97599,-10.128813 z m -1.12935,4.129168 c 2.50573,0 4.16446,2.43515 4.16446,6.070229 0,3.458619 -1.72931,5.893769 -4.16446,5.893769 -2.47044,0 -4.16446,-2.399858 -4.16446,-5.964353 0,-3.564495 1.69402,-5.999645 4.16446,-5.999645 z"
           style="font-style:normal;font-variant:normal;font-weight:bold;font-stretch:normal;font-size:35.29203033px;line-height:125%;font-family:'Free Sans';-inkscape-font-specification:'Free Sans, Bold';text-align:start;writing-mode:lr-tb;text-anchor:start"
           id="path4797" />
        <path
           d="m 320.7211,30.944526 c -5.47026,0 -8.82301,3.952708 -8.82301,10.340565 0,6.105521 3.31745,9.846477 8.71713,9.846477 4.27034,0 7.72896,-2.43515 8.82301,-6.176106 l -4.8703,0 c -0.59996,1.517558 -1.97635,2.399858 -3.77625,2.399858 -3.31745,0 -3.84683,-2.43515 -3.9527,-5.011468 l 12.77571,0 c 0.0353,-0.423504 0.0353,-0.599964 0.0353,-0.847009 0,-8.434795 -5.11734,-10.552317 -8.92888,-10.552317 z m 3.77625,8.117167 -7.58779,0 c 0.31763,-2.893946 1.55285,-4.340919 3.74096,-4.340919 2.29398,0 3.63508,1.552849 3.84683,4.340919 z"
           style="font-style:normal;font-variant:normal;font-weight:bold;font-stretch:normal;font-size:35.29203033px;line-height:125%;font-family:'Free Sans';-inkscape-font-specification:'Free Sans, Bold';text-align:start;writing-mode:lr-tb;text-anchor:start"
           id="path4799" />
        <path
           d="m 333.39038,31.262155 0,19.057696 4.94088,0 0,-11.434618 c 0,-2.25869 1.58814,-3.740955 3.988,-3.740955 2.11752,0 3.17629,1.164637 3.17629,3.423327 l 0,11.752246 4.94088,0 0,-12.775715 c 0,-4.199752 -2.32927,-6.59961 -6.38786,-6.59961 -2.57632,0 -4.30563,0.952885 -5.71731,3.070407 l 0,-2.752778 -4.94088,0 z"
           style="font-style:normal;font-variant:normal;font-weight:bold;font-stretch:normal;font-size:35.29203033px;line-height:125%;font-family:'Free Sans';-inkscape-font-specification:'Free Sans, Bold';text-align:start;writing-mode:lr-tb;text-anchor:start"
           id="path4801" />
        <path
           d="m 360.85752,30.273978 4.62325,20.045873 5.29381,0 4.55267,-20.045873 0,20.045873 5.2938,0 0,-25.72789 -7.976,0 -4.51738,20.469377 -4.65854,-20.469377 -7.90542,0 0,25.72789 5.29381,0 0,-20.045873 z"
           style="font-style:normal;font-variant:normal;font-weight:bold;font-stretch:normal;font-size:35.29203033px;line-height:125%;font-family:'Free Sans';-inkscape-font-specification:'Free Sans, Bold';text-align:start;writing-mode:lr-tb;text-anchor:start"
           id="path4803" />
        <path
           d="m 390.61366,51.131568 c 2.11752,0 4.05858,-0.917593 5.78789,-2.717487 0,0.988177 0.10588,1.341097 0.56468,1.90577 l 5.36438,0 0,-0.599965 c -0.8823,-0.811716 -1.12934,-1.341097 -1.12934,-2.329274 l 0,-10.587609 c 0,-3.882123 -2.6469,-5.858477 -7.79954,-5.858477 -5.15264,0 -7.83483,2.188106 -8.15246,6.59961 l 4.76443,0 c 0.24704,-1.976354 1.05876,-2.61161 3.49391,-2.61161 1.90577,0 2.85865,0.635256 2.85865,1.905769 0,1.870478 -2.32927,1.976354 -3.95271,2.223398 l -1.97635,0.352921 c -3.77625,0.635256 -5.61143,2.576318 -5.61143,5.999645 0,3.423327 2.32927,5.717309 5.78789,5.717309 z m 5.7526,-8.470088 c 0,2.858655 -1.41168,4.482088 -3.91741,4.482088 -1.65873,0 -2.6822,-0.882301 -2.6822,-2.293982 0,-1.482265 0.77643,-2.188106 2.82336,-2.61161 l 1.69402,-0.317628 c 1.30581,-0.247045 1.51756,-0.317629 2.08223,-0.599965 l 0,1.341097 z"
           style="font-style:normal;font-variant:normal;font-weight:bold;font-stretch:normal;font-size:35.29203033px;line-height:125%;font-family:'Free Sans';-inkscape-font-specification:'Free Sans, Bold';text-align:start;writing-mode:lr-tb;text-anchor:start"
           id="path4805" />
        <path
           d="m 415.93238,30.944526 c -2.39986,0 -4.09388,1.023469 -5.2938,3.140991 l 0,-2.823362 -4.94089,0 0,26.751359 4.94089,0 0,-9.952353 c 1.19992,2.117522 2.89394,3.105699 5.2938,3.105699 4.58796,0 7.976,-4.305628 7.976,-10.093521 0,-5.611433 -3.03512,-10.128813 -7.976,-10.128813 z m -1.12934,4.129168 c 2.50573,0 4.16445,2.43515 4.16445,6.070229 0,3.458619 -1.7293,5.893769 -4.16445,5.893769 -2.47045,0 -4.16446,-2.399858 -4.16446,-5.964353 0,-3.564495 1.69401,-5.999645 4.16446,-5.999645 z"
           style="font-style:normal;font-variant:normal;font-weight:bold;font-stretch:normal;font-size:35.29203033px;line-height:125%;font-family:'Free Sans';-inkscape-font-specification:'Free Sans, Bold';text-align:start;writing-mode:lr-tb;text-anchor:start"
           id="path4807" />
        <path
           d="m 437.85203,30.944526 c -2.39986,0 -4.09388,1.023469 -5.29381,3.140991 l 0,-2.823362 -4.94088,0 0,26.751359 4.94088,0 0,-9.952353 c 1.19993,2.117522 2.89395,3.105699 5.29381,3.105699 4.58796,0 7.976,-4.305628 7.976,-10.093521 0,-5.611433 -3.03512,-10.128813 -7.976,-10.128813 z m -1.12935,4.129168 c 2.50574,0 4.16446,2.43515 4.16446,6.070229 0,3.458619 -1.72931,5.893769 -4.16446,5.893769 -2.47044,0 -4.16446,-2.399858 -4.16446,-5.964353 0,-3.564495 1.69402,-5.999645 4.16446,-5.999645 z"
           style="font-style:normal;font-variant:normal;font-weight:bold;font-stretch:normal;font-size:35.29203033px;line-height:125%;font-family:'Free Sans';-inkscape-font-specification:'Free Sans, Bold';text-align:start;writing-mode:lr-tb;text-anchor:start"
           id="path4809" />
        <path
           d="m 454.65436,31.262155 -4.94088,0 0,19.057696 4.94088,0 0,-19.057696 z m 0,-6.670194 -4.94088,0 0,4.411504 4.94088,0 0,-4.411504 z"
           style="font-style:normal;font-variant:normal;font-weight:bold;font-stretch:normal;font-size:35.29203033px;line-height:125%;font-family:'Free Sans';-inkscape-font-specification:'Free Sans, Bold';text-align:start;writing-mode:lr-tb;text-anchor:start"
           id="path4811" />
        <path
           d="m 459.39395,31.262155 0,19.057696 4.94088,0 0,-11.434618 c 0,-2.25869 1.58815,-3.740955 3.988,-3.740955 2.11753,0 3.17629,1.164637 3.17629,3.423327 l 0,11.752246 4.94088,0 0,-12.775715 c 0,-4.199752 -2.32927,-6.59961 -6.38786,-6.59961 -2.57632,0 -4.30562,0.952885 -5.71731,3.070407 l 0,-2.752778 -4.94088,0 z"
           style="font-style:normal;font-variant:normal;font-weight:bold;font-stretch:normal;font-size:35.29203033px;line-height:125%;font-family:'Free Sans';-inkscape-font-specification:'Free Sans, Bold';text-align:start;writing-mode:lr-tb;text-anchor:start"
           id="path4813" />
        <path
           d="m 493.35482,31.262155 0,2.929238 c -1.48227,-2.25869 -3.1057,-3.246867 -5.2938,-3.246867 -4.51738,0 -7.90542,4.411504 -7.90542,10.305273 0,5.929061 3.1057,9.881769 7.79954,9.881769 2.2234,0 3.56449,-0.670549 5.39968,-2.752779 l 0,2.576318 c 0,2.293982 -1.72931,3.882124 -4.19975,3.882124 -1.87048,0 -3.1057,-0.776425 -3.49391,-2.223398 l -5.11735,0 c 0.0706,3.317451 3.38804,5.399681 8.4348,5.399681 5.7526,0 9.07005,-2.576319 9.07005,-7.058407 l 0,-19.692952 -4.69384,0 z m -4.23504,3.811539 c 2.47044,0 4.30562,2.576318 4.30562,6.105521 0,3.458619 -1.79989,5.823185 -4.37621,5.823185 -2.32927,0 -3.95271,-2.364566 -3.95271,-5.823185 0,-3.599787 1.62344,-6.105521 4.0233,-6.105521 z"
           style="font-style:normal;font-variant:normal;font-weight:bold;font-stretch:normal;font-size:35.29203033px;line-height:125%;font-family:'Free Sans';-inkscape-font-specification:'Free Sans, Bold';text-align:start;writing-mode:lr-tb;text-anchor:start"
           id="path4815" />
      </g>
    </g>
  </g>
  <style
     id="style4713"
     type="text/css">
	.st0{fill:#FF0000;}
</style>
</svg>
